<svg xmlns="http://www.w3.org/2000/svg" viewBox="0 0 816 1024" width="816" height="1024">
  <title>Zig-zag arrow up left</title>
  <path id="outline" fill="#DB3632" d="M732.4 947.4 734.5 953 685.7 970.9 627.9 813.3 578.5 832.7 225.5 279.3 170.8 300.9 90.9 167.8 64.2 183.9 45.8 42.1 162.2 125 135.5 141.1 192.7 236.3 246.3 215.2 599.3 768.6 658.4 745.4Z"/>
  <path id="fill" fill="#F6F0EA" d="M726.8 949.4 689.3 963.2 631.4 805.4 580.9 825.3 227.9 271.9 173.3 293.4 93 159.6 69 174 53.5 55 151.3 124.6 127.3 139 190.2 243.8 243.9 222.6 596.9 776 654.8 753.2Z"/>
</svg>
